{
	"asset":{
		"generator":"Khronos glTF Blender I/O v5.0.21",
		"version":"2.0"
	},
	"scene":0,
	"scenes":[
		{
			"name":"Scene",
			"nodes":[
				0
			]
		}
	],
	"nodes":[
		{
			"mesh":0,
			"name":"kitten"
		}
	],
	"meshes":[
		{
			"name":"kitten",
			"primitives":[
				{
					"attributes":{
						"POSITION":0,
						"NORMAL":1
					},
					"indices":2
				}
			]
		}
	],
	"accessors":[
		{
			"bufferView":0,
			"componentType":5126,
			"count":14959,
			"max":[
				0.32238999009132385,
				0.49439701437950134,
				0.2929370105266571
			],
			"min":[
				-0.32238999009132385,
				-0.49439701437950134,
				-0.2929370105266571
			],
			"type":"VEC3"
		},
		{
			"bufferView":1,
			"componentType":5126,
			"count":14959,
			"type":"VEC3"
		},
		{
			"bufferView":2,
			"componentType":5123,
			"count":86832,
			"type":"SCALAR"
		}
	],
	"bufferViews":[
		{
			"buffer":0,
			"byteLength":179508,
			"byteOffset":0,
			"target":34962
		},
		{
			"buffer":0,
			"byteLength":179508,
			"byteOffset":179508,
			"target":34962
		},
		{
			"buffer":0,
			"byteLength":173664,
			"byteOffset":359016,
			"target":34963
		}
	],
	"buffers":[
		{
			"byteLength":532680,
			"uri":"kitten.bin"
		}
	]
}
