{
	"asset":{
		"generator":"Khronos glTF Blender I/O v5.0.21",
		"version":"2.0"
	},
	"extensionsUsed":[
		"KHR_materials_specular"
	],
	"scene":0,
	"scenes":[
		{
			"name":"Scene",
			"nodes":[
				0
			]
		}
	],
	"nodes":[
		{
			"mesh":0,
			"name":"mesh_all1_Texture1_0"
		}
	],
	"materials":[
		{
			"doubleSided":true,
			"extensions":{
				"KHR_materials_specular":{
					"specularFactor":0
				}
			},
			"name":"Texture1.001",
			"pbrMetallicRoughness":{
				"baseColorFactor":[
					0.800000011920929,
					0.800000011920929,
					0.800000011920929,
					1
				],
				"metallicFactor":0
			}
		}
	],
	"meshes":[
		{
			"name":"mesh_all1_Texture1_0.001",
			"primitives":[
				{
					"attributes":{
						"POSITION":0,
						"NORMAL":1,
						"TEXCOORD_0":2
					},
					"indices":3,
					"material":0
				}
			]
		}
	],
	"accessors":[
		{
			"bufferView":0,
			"componentType":5126,
			"count":4702,
			"max":[
				0.7395350337028503,
				0.9248819947242737,
				0.7419049739837646
			],
			"min":[
				-0.7210429906845093,
				-0.10764700174331665,
				-0.5853449702262878
			],
			"type":"VEC3"
		},
		{
			"bufferView":1,
			"componentType":5126,
			"count":4702,
			"type":"VEC3"
		},
		{
			"bufferView":2,
			"componentType":5126,
			"count":4702,
			"type":"VEC2"
		},
		{
			"bufferView":3,
			"componentType":5123,
			"count":11484,
			"type":"SCALAR"
		}
	],
	"bufferViews":[
		{
			"buffer":0,
			"byteLength":56424,
			"byteOffset":0,
			"target":34962
		},
		{
			"buffer":0,
			"byteLength":56424,
			"byteOffset":56424,
			"target":34962
		},
		{
			"buffer":0,
			"byteLength":37616,
			"byteOffset":112848,
			"target":34962
		},
		{
			"buffer":0,
			"byteLength":22968,
			"byteOffset":150464,
			"target":34963
		}
	],
	"buffers":[
		{
			"byteLength":173432,
			"uri":"viking_room.bin"
		}
	]
}
